<svg width="512" height="512" viewBox="0 0 512 512" fill="none" xmlns="http://www.w3.org/2000/svg">
  <defs>
    <linearGradient id="bg" x1="76" y1="40" x2="440" y2="456" gradientUnits="userSpaceOnUse">
      <stop stop-color="#EBF7FF"/>
      <stop offset="1" stop-color="#CFE8FF"/>
    </linearGradient>
    <radialGradient id="shadow" cx="0" cy="0" r="1" gradientUnits="userSpaceOnUse" gradientTransform="translate(256 432) scale(146 34)">
      <stop stop-color="#33597A" stop-opacity="0.25"/>
      <stop offset="1" stop-color="#33597A" stop-opacity="0"/>
    </radialGradient>
    <linearGradient id="shell" x1="118" y1="84" x2="376" y2="350" gradientUnits="userSpaceOnUse">
      <stop stop-color="#FFFFFF"/>
      <stop offset="1" stop-color="#EAF5FF"/>
    </linearGradient>
    <linearGradient id="visor" x1="180" y1="122" x2="338" y2="272" gradientUnits="userSpaceOnUse">
      <stop stop-color="#2D3B54"/>
      <stop offset="1" stop-color="#111B2F"/>
    </linearGradient>
    <radialGradient id="iris" cx="0" cy="0" r="1" gradientUnits="userSpaceOnUse" gradientTransform="translate(0 0) scale(1)">
      <stop stop-color="#A7F2FF"/>
      <stop offset="1" stop-color="#2D88D8"/>
    </radialGradient>
  </defs>

  <rect width="512" height="512" rx="64" fill="url(#bg)"/>
  <ellipse cx="256" cy="432" rx="146" ry="34" fill="url(#shadow)"/>

  <rect x="112" y="84" width="288" height="234" rx="96" fill="url(#shell)" stroke="#D6E8F7" stroke-width="8"/>
  <rect x="168" y="126" width="176" height="126" rx="54" fill="url(#visor)"/>

  <circle cx="222" cy="186" r="34" fill="#1B2740"/>
  <circle cx="290" cy="186" r="34" fill="#1B2740"/>
  <circle cx="222" cy="186" r="22" fill="url(#iris)"/>
  <circle cx="290" cy="186" r="22" fill="url(#iris)"/>
  <circle cx="215" cy="178" r="7" fill="#ECFFFF"/>
  <circle cx="283" cy="178" r="7" fill="#ECFFFF"/>

  <circle cx="180" cy="160" r="5" fill="#B8CDE0"/>
  <circle cx="198" cy="152" r="4" fill="#B8CDE0"/>
  <circle cx="216" cy="146" r="4" fill="#B8CDE0"/>

  <rect x="152" y="334" width="208" height="122" rx="54" fill="url(#shell)" stroke="#D6E8F7" stroke-width="8"/>
  <rect x="198" y="364" width="116" height="56" rx="20" fill="#E3F2FF"/>
  <text x="256" y="399" text-anchor="middle" font-family="Segoe UI, Arial, sans-serif" font-size="22" fill="#6A89A5">AI</text>

  <rect x="114" y="346" width="46" height="96" rx="20" fill="url(#shell)" stroke="#D6E8F7" stroke-width="8"/>
  <rect x="352" y="346" width="46" height="96" rx="20" fill="url(#shell)" stroke="#D6E8F7" stroke-width="8"/>

  <rect x="180" y="430" width="56" height="34" rx="16" fill="#F2FAFF" stroke="#D6E8F7" stroke-width="6"/>
  <rect x="276" y="430" width="56" height="34" rx="16" fill="#F2FAFF" stroke="#D6E8F7" stroke-width="6"/>

  <rect x="60" y="148" width="54" height="108" rx="26" fill="url(#shell)" stroke="#D6E8F7" stroke-width="8" transform="rotate(-16 60 148)"/>
  <rect x="40" y="114" width="18" height="18" rx="9" fill="#E6F7FF" stroke="#BFDCEC" stroke-width="4"/>
  <rect x="52" y="126" width="14" height="14" rx="7" fill="#E6F7FF" stroke="#BFDCEC" stroke-width="3"/>
  <rect x="64" y="138" width="12" height="12" rx="6" fill="#E6F7FF" stroke="#BFDCEC" stroke-width="3"/>

  <circle cx="126" cy="82" r="8" fill="#E8F8FF" stroke="#C6E4F2" stroke-width="4"/>
  <rect x="124" y="46" width="4" height="34" rx="2" fill="#C6DCEC"/>
  <circle cx="386" cy="82" r="8" fill="#E8F8FF" stroke="#C6E4F2" stroke-width="4"/>
  <rect x="384" y="46" width="4" height="34" rx="2" fill="#C6DCEC"/>

  <ellipse cx="144" cy="196" rx="14" ry="26" fill="#A9FFFF" fill-opacity="0.35"/>
  <ellipse cx="368" cy="196" rx="14" ry="26" fill="#A9FFFF" fill-opacity="0.35"/>
</svg>
